<svg width="517" height="302" viewBox="0 0 517 302" fill="none" xmlns="http://www.w3.org/2000/svg">
<g opacity="0.6">
<path d="M104.186 5.26468V-65.482H228.377V5.26468H104.186ZM104.186 89.3051V18.5584H228.377V89.3051H104.186ZM104.186 173.827V103.08H228.377V173.827H104.186Z" stroke="#EA4D02" stroke-width="1.2"/>
<path d="M-165.174 -92.7504V-97.0125H35.2872C59.5579 -97.0125 79.1977 -77.3245 79.1977 -53.1194V257.484C79.1977 281.744 59.5023 301.377 35.2872 301.377H-13.5438V-3.70782V-4.30783H-14.1438H-76.696C-125.57 -4.30783 -165.174 -43.8966 -165.174 -92.7504ZM286.696 -253.101L286.698 -253.101C415.349 -240.064 516.279 -124.223 516.279 16.3575C516.279 165.672 402.38 287.115 262.427 287.115H114.988V201.872H262.427C358.36 201.872 436.375 118.613 436.375 16.3575C436.375 -85.8979 358.36 -169.105 262.427 -169.105H-177.049H-177.05C-219.188 -169.053 -253.4 -205.46 -253.4 -250.47V-254.4H262.427C270.612 -254.4 278.702 -253.933 286.696 -253.101Z" stroke="#EA4D02" stroke-width="1.2"/>
</g>
</svg>
