<svg width="28" height="28" viewBox="0 0 28 28" fill="none" xmlns="http://www.w3.org/2000/svg">
<path d="M14 26.5416C7.08165 26.5416 1.45831 20.9183 1.45831 13.9999C1.45831 7.08159 7.08165 1.45825 14 1.45825C20.9183 1.45825 26.5416 7.08159 26.5416 13.9999C26.5416 20.9183 20.9183 26.5416 14 26.5416ZM14 3.20825C8.04998 3.20825 3.20831 8.04992 3.20831 13.9999C3.20831 19.9499 8.04998 24.7916 14 24.7916C19.95 24.7916 24.7916 19.9499 24.7916 13.9999C24.7916 8.04992 19.95 3.20825 14 3.20825Z" fill="white"/>
<path d="M15.47 18.9933C15.2483 18.9933 15.0266 18.9116 14.8516 18.7366L10.7333 14.6183C10.395 14.2799 10.395 13.7199 10.7333 13.3816L14.8516 9.26327C15.19 8.92494 15.75 8.92494 16.0883 9.26327C16.4266 9.6016 16.4266 10.1616 16.0883 10.4999L12.5883 13.9999L16.0883 17.4999C16.4266 17.8383 16.4266 18.3983 16.0883 18.7366C15.925 18.9116 15.7033 18.9933 15.47 18.9933Z" fill="white"/>
</svg>
