<svg width="28" height="28" viewBox="0 0 28 28" fill="none" xmlns="http://www.w3.org/2000/svg">
<path d="M14 26.5416C7.08165 26.5416 1.45831 20.9183 1.45831 13.9999C1.45831 7.08159 7.08165 1.45825 14 1.45825C20.9183 1.45825 26.5416 7.08159 26.5416 13.9999C26.5416 20.9183 20.9183 26.5416 14 26.5416ZM14 3.20825C8.04998 3.20825 3.20831 8.04992 3.20831 13.9999C3.20831 19.9499 8.04998 24.7916 14 24.7916C19.95 24.7916 24.7916 19.9499 24.7916 13.9999C24.7916 8.04992 19.95 3.20825 14 3.20825Z" fill="white"/>
<path d="M12.53 18.9933C12.3083 18.9933 12.0866 18.9116 11.9116 18.7366C11.5733 18.3983 11.5733 17.8383 11.9116 17.4999L15.4116 13.9999L11.9116 10.4999C11.5733 10.1616 11.5733 9.6016 11.9116 9.26327C12.25 8.92494 12.81 8.92494 13.1483 9.26327L17.2666 13.3816C17.605 13.7199 17.605 14.2799 17.2666 14.6183L13.1483 18.7366C12.9733 18.9116 12.7516 18.9933 12.53 18.9933Z" fill="white"/>
</svg>
