<svg width="28" height="28" viewBox="0 0 28 28" fill="none" xmlns="http://www.w3.org/2000/svg">
<path d="M20.3583 26.5416C19.04 26.5416 17.6516 26.2266 16.2166 25.6199C14.8166 25.0249 13.405 24.2083 12.0283 23.2166C10.6633 22.2133 9.34498 21.0933 8.09665 19.8683C6.85998 18.6199 5.73998 17.3016 4.74831 15.9483C3.74498 14.5483 2.93998 13.1483 2.36831 11.7949C1.76165 10.3483 1.45831 8.94825 1.45831 7.62992C1.45831 6.71992 1.62165 5.85659 1.93665 5.05159C2.26331 4.22325 2.78831 3.45325 3.49998 2.78825C4.39831 1.90159 5.42498 1.45825 6.52165 1.45825C6.97665 1.45825 7.44331 1.56325 7.83998 1.74992C8.29498 1.95992 8.67998 2.27492 8.95998 2.69492L11.6666 6.50992C11.9116 6.84825 12.0983 7.17492 12.2266 7.50159C12.3783 7.85159 12.46 8.20159 12.46 8.53992C12.46 8.98325 12.3316 9.41492 12.0866 9.82325C11.9116 10.1383 11.6433 10.4766 11.305 10.8149L10.5116 11.6433C10.5233 11.6783 10.535 11.7016 10.5466 11.7249C10.6866 11.9699 10.9666 12.3899 11.5033 13.0199C12.075 13.6733 12.6116 14.2683 13.1483 14.8166C13.8366 15.4933 14.4083 16.0299 14.945 16.4733C15.61 17.0333 16.0416 17.3133 16.2983 17.4416L16.275 17.4999L17.1266 16.6599C17.4883 16.2983 17.8383 16.0299 18.1766 15.8549C18.8183 15.4583 19.635 15.3883 20.4516 15.7266C20.755 15.8549 21.0816 16.0299 21.4316 16.2749L25.305 19.0283C25.7366 19.3199 26.0516 19.6933 26.2383 20.1366C26.4133 20.5799 26.495 20.9883 26.495 21.3966C26.495 21.9566 26.3666 22.5166 26.1216 23.0416C25.8766 23.5666 25.5733 24.0216 25.1883 24.4416C24.5233 25.1766 23.8 25.7016 22.96 26.0399C22.155 26.3666 21.28 26.5416 20.3583 26.5416ZM6.52165 3.20825C5.87998 3.20825 5.28498 3.48825 4.71331 4.04825C4.17665 4.54992 3.80331 5.09825 3.56998 5.69325C3.32498 6.29992 3.20831 6.94159 3.20831 7.62992C3.20831 8.71492 3.46498 9.89325 3.97831 11.1066C4.50331 12.3433 5.23831 13.6266 6.17165 14.9099C7.10498 16.1933 8.16665 17.4416 9.33331 18.6199C10.5 19.7749 11.76 20.8483 13.055 21.7933C14.315 22.7149 15.61 23.4616 16.8933 23.9983C18.8883 24.8499 20.755 25.0483 22.295 24.4066C22.89 24.1616 23.415 23.7883 23.8933 23.2516C24.1616 22.9599 24.3716 22.6449 24.5466 22.2716C24.6866 21.9799 24.7566 21.6766 24.7566 21.3733C24.7566 21.1866 24.7216 20.9999 24.6283 20.7899C24.5933 20.7199 24.5233 20.5916 24.3016 20.4399L20.4283 17.6866C20.195 17.5233 19.985 17.4066 19.7866 17.3249C19.53 17.2199 19.425 17.1149 19.0283 17.3599C18.795 17.4766 18.585 17.6516 18.3516 17.8849L17.465 18.7599C17.01 19.2033 16.31 19.3083 15.7733 19.1099L15.4583 18.9699C14.98 18.7133 14.42 18.3166 13.8016 17.7916C13.2416 17.3133 12.635 16.7533 11.9 16.0299C11.3283 15.4466 10.7566 14.8283 10.1616 14.1399C9.61331 13.4983 9.21665 12.9499 8.97165 12.4949L8.83165 12.1449C8.76165 11.8766 8.73831 11.7249 8.73831 11.5616C8.73831 11.1416 8.88998 10.7683 9.18165 10.4766L10.0566 9.56659C10.29 9.33325 10.465 9.11159 10.5816 8.91325C10.675 8.76159 10.71 8.63325 10.71 8.51659C10.71 8.42325 10.675 8.28325 10.6166 8.14325C10.535 7.95659 10.4066 7.74659 10.2433 7.52492L7.53665 3.69825C7.41998 3.53492 7.27998 3.41825 7.10498 3.33659C6.91831 3.25492 6.71998 3.20825 6.52165 3.20825ZM16.275 17.5116L16.0883 18.3049L16.4033 17.4883C16.345 17.4766 16.2983 17.4883 16.275 17.5116Z" fill="#020749"/>
</svg>
