<svg width="62" height="62" viewBox="0 0 62 62" fill="none" xmlns="http://www.w3.org/2000/svg">
<rect width="62" height="62" rx="31" fill="white"/>
<path d="M27.2115 29.4933C27.0781 29.48 26.9181 29.48 26.7715 29.4933C23.5981 29.3866 21.0781 26.7866 21.0781 23.5866C21.0781 20.32 23.7181 17.6666 26.9981 17.6666C30.2648 17.6666 32.9181 20.32 32.9181 23.5866C32.9048 26.7866 30.3848 29.3866 27.2115 29.4933Z" stroke="#0E2CA0" stroke-width="2" stroke-linecap="round" stroke-linejoin="round"/>
<path d="M36.8817 20.3334C39.4683 20.3334 41.5483 22.4267 41.5483 25C41.5483 27.52 39.5483 29.5734 37.055 29.6667C36.9483 29.6534 36.8283 29.6534 36.7083 29.6667" stroke="#0E2CA0" stroke-width="2" stroke-linecap="round" stroke-linejoin="round"/>
<path d="M20.545 34.4134C17.3183 36.5734 17.3183 40.0934 20.545 42.24C24.2117 44.6934 30.225 44.6934 33.8917 42.24C37.1183 40.08 37.1183 36.56 33.8917 34.4134C30.2383 31.9734 24.225 31.9734 20.545 34.4134Z" stroke="#0E2CA0" stroke-width="2" stroke-linecap="round" stroke-linejoin="round"/>
<path d="M39.4531 41.6666C40.4131 41.4666 41.3198 41.08 42.0665 40.5066C44.1465 38.9466 44.1465 36.3733 42.0665 34.8133C41.3331 34.2533 40.4398 33.88 39.4931 33.6666" stroke="#0E2CA0" stroke-width="2" stroke-linecap="round" stroke-linejoin="round"/>
</svg>
