<svg width="241" height="557" viewBox="0 0 241 557" fill="none" xmlns="http://www.w3.org/2000/svg">
<path d="M-240.715 157.388C-216.112 157.388 -196.204 177.344 -196.204 201.881V512.484C-196.204 537.077 -216.169 556.977 -240.715 556.977H-290.146V251.292H-352.698C-401.903 251.292 -441.775 211.435 -441.775 162.25V157.388H-240.715Z" fill="white"/>
<path d="M-13.5745 0C-5.36639 0 2.74402 0.468666 10.7567 1.30185C139.741 14.3724 240.877 130.497 240.877 271.357C240.877 420.966 126.745 542.715 -13.5745 542.715H-161.614V456.272H-13.5745C81.9914 456.272 159.773 373.318 159.773 271.357C159.773 169.397 81.9914 86.4949 -13.5745 86.4949H-453.051C-495.557 86.547 -530.002 49.8348 -530.002 4.53044V0L-13.5745 0Z" fill="white"/>
</svg>
