<svg width="276" height="60" viewBox="0 0 276 60" fill="none" xmlns="http://www.w3.org/2000/svg">
<path d="M113.633 8.0033V11.8049H108.19V28.1633H104.215V11.8049H98.8008V8.0033H113.633Z" fill="#020749"/>
<path d="M126.911 28.1633L122.85 21.1649H119.826V28.1633H115.852V8.0033H123.916C125.778 8.0033 127.362 8.6561 128.668 9.9617C129.973 11.2673 130.626 12.8417 130.626 14.6849C130.626 15.9329 130.271 17.0945 129.56 18.1697C128.85 19.2257 127.909 20.0225 126.738 20.5601L131.202 28.1633H126.911ZM119.826 11.7185V17.6801H123.916C124.664 17.6801 125.308 17.3921 125.845 16.8161C126.383 16.2209 126.652 15.5105 126.652 14.6849C126.652 13.8593 126.383 13.1585 125.845 12.5825C125.308 12.0065 124.664 11.7185 123.916 11.7185H119.826Z" fill="#020749"/>
<path d="M140.918 28.5665C138.672 28.5665 136.829 27.9329 135.389 26.6657C133.949 25.3985 133.229 23.6993 133.229 21.5681V8.0033H137.174V21.2513C137.174 22.3073 137.472 23.1425 138.067 23.7569C138.682 24.3713 139.632 24.6785 140.918 24.6785C142.205 24.6785 143.146 24.3713 143.741 23.7569C144.355 23.1425 144.662 22.3073 144.662 21.2513V8.0033H148.637V21.5681C148.637 23.6993 147.917 25.3985 146.477 26.6657C145.037 27.9329 143.184 28.5665 140.918 28.5665Z" fill="#020749"/>
<path d="M169.18 25.5425C167.145 27.5585 164.668 28.5665 161.75 28.5665C158.832 28.5665 156.355 27.5585 154.32 25.5425C152.304 23.5073 151.296 21.0209 151.296 18.0833C151.296 15.1457 152.304 12.6689 154.32 10.6529C156.355 8.6177 158.832 7.6001 161.75 7.6001C164.668 7.6001 167.145 8.6177 169.18 10.6529C171.216 12.6689 172.233 15.1457 172.233 18.0833C172.233 21.0209 171.216 23.5073 169.18 25.5425ZM157.113 22.8353C158.361 24.0641 159.907 24.6785 161.75 24.6785C163.593 24.6785 165.139 24.0641 166.387 22.8353C167.635 21.5873 168.259 20.0033 168.259 18.0833C168.259 16.1633 167.635 14.5793 166.387 13.3313C165.139 12.0833 163.593 11.4593 161.75 11.4593C159.907 11.4593 158.361 12.0833 157.113 13.3313C155.865 14.5793 155.241 16.1633 155.241 18.0833C155.241 20.0033 155.865 21.5873 157.113 22.8353Z" fill="#020749"/>
<path d="M186.691 8.0033H190.665V28.1633H187.641L179.001 15.8369V28.1633H175.027V8.0033H178.05L186.691 20.3009V8.0033Z" fill="#020749"/>
<path d="M214.19 17.3345V18.8897C214.19 21.7697 213.269 24.1025 211.425 25.8881C209.582 27.6737 207.201 28.5665 204.283 28.5665C201.173 28.5665 198.59 27.5585 196.536 25.5425C194.501 23.5073 193.483 21.0305 193.483 18.1121C193.483 15.1745 194.491 12.6881 196.507 10.6529C198.542 8.6177 201.057 7.6001 204.053 7.6001C205.934 7.6001 207.653 8.0321 209.208 8.8961C210.763 9.7409 211.973 10.8737 212.837 12.2945L209.438 14.2529C208.958 13.4273 208.229 12.7553 207.249 12.2369C206.289 11.7185 205.214 11.4593 204.024 11.4593C202.104 11.4593 200.52 12.0929 199.272 13.3601C198.043 14.6081 197.429 16.1921 197.429 18.1121C197.429 20.0129 198.053 21.5873 199.301 22.8353C200.568 24.0641 202.238 24.6785 204.312 24.6785C205.848 24.6785 207.115 24.3425 208.113 23.6705C209.131 22.9793 209.822 22.0385 210.187 20.8481H204.081V17.3345H214.19Z" fill="#020749"/>
<path d="M232.224 8.0033C234.988 8.0033 237.292 8.9729 239.136 10.9121C240.998 12.8513 241.929 15.2417 241.929 18.0833C241.929 20.9249 240.998 23.3153 239.136 25.2545C237.292 27.1937 234.988 28.1633 232.224 28.1633H224.217V8.0033H232.224ZM232.224 24.3617C233.971 24.3617 235.392 23.7857 236.486 22.6337C237.58 21.4625 238.128 19.9457 238.128 18.0833C238.128 16.2209 237.58 14.7137 236.486 13.5617C235.392 12.3905 233.971 11.8049 232.224 11.8049H228.192V24.3617H232.224Z" fill="#020749"/>
<path d="M256.977 28.1633L255.768 24.5345H247.732L246.523 28.1633H242.232L249.288 8.0033H254.212L261.297 28.1633H256.977ZM249 20.8193H254.529L251.764 12.5825L249 20.8193Z" fill="#020749"/>
<path d="M275.127 8.0033V11.8049H269.683V28.1633H265.709V11.8049H260.295V8.0033H275.127Z" fill="#020749"/>
<path d="M166.326 45.1601C166.326 46.2481 165.982 47.1921 165.294 47.9921L166.158 48.8921L164.982 49.9361L164.07 48.9881C163.422 49.3481 162.718 49.5281 161.958 49.5281C160.75 49.5281 159.722 49.1081 158.874 48.2681C158.026 47.4201 157.602 46.3841 157.602 45.1601C157.602 43.9361 158.026 42.9041 158.874 42.0641C159.722 41.2161 160.75 40.7921 161.958 40.7921C163.166 40.7921 164.194 41.2161 165.042 42.0641C165.898 42.9041 166.326 43.9361 166.326 45.1601ZM161.958 47.9081C162.27 47.9081 162.582 47.8561 162.894 47.7521L161.514 46.3121L162.69 45.2681L164.166 46.8041C164.502 46.3241 164.67 45.7761 164.67 45.1601C164.67 44.3601 164.41 43.7001 163.89 43.1801C163.37 42.6601 162.726 42.4001 161.958 42.4001C161.19 42.4001 160.546 42.6601 160.026 43.1801C159.506 43.7001 159.246 44.3601 159.246 45.1601C159.246 45.9521 159.506 46.6081 160.026 47.1281C160.546 47.6481 161.19 47.9081 161.958 47.9081Z" fill="#EA4D02"/>
<path d="M171.495 43.3601H173.043V49.3601H171.495V48.6881C171.119 49.2481 170.523 49.5281 169.707 49.5281C169.051 49.5281 168.507 49.3081 168.075 48.8681C167.651 48.4281 167.439 47.8201 167.439 47.0441V43.3601H168.987V46.8521C168.987 47.2521 169.095 47.5601 169.311 47.7761C169.527 47.9841 169.815 48.0881 170.175 48.0881C170.575 48.0881 170.895 47.9641 171.135 47.7161C171.375 47.4681 171.495 47.0961 171.495 46.6001V43.3601Z" fill="#EA4D02"/>
<path d="M179.02 43.3601H180.568V49.3601H179.02V48.6521C178.556 49.2361 177.904 49.5281 177.064 49.5281C176.264 49.5281 175.576 49.2241 175 48.6161C174.432 48.0001 174.148 47.2481 174.148 46.3601C174.148 45.4721 174.432 44.7241 175 44.1161C175.576 43.5001 176.264 43.1921 177.064 43.1921C177.904 43.1921 178.556 43.4841 179.02 44.0681V43.3601ZM176.164 47.5841C176.476 47.8961 176.872 48.0521 177.352 48.0521C177.832 48.0521 178.228 47.8961 178.54 47.5841C178.86 47.2641 179.02 46.8561 179.02 46.3601C179.02 45.8641 178.86 45.4601 178.54 45.1481C178.228 44.8281 177.832 44.6681 177.352 44.6681C176.872 44.6681 176.476 44.8281 176.164 45.1481C175.852 45.4601 175.696 45.8641 175.696 46.3601C175.696 46.8561 175.852 47.2641 176.164 47.5841Z" fill="#EA4D02"/>
<path d="M181.972 49.3601V40.6001H183.52V49.3601H181.972Z" fill="#EA4D02"/>
<path d="M185.705 42.6401C185.449 42.6401 185.225 42.5481 185.033 42.3641C184.849 42.1721 184.757 41.9481 184.757 41.6921C184.757 41.4361 184.849 41.2121 185.033 41.0201C185.225 40.8281 185.449 40.7321 185.705 40.7321C185.969 40.7321 186.193 40.8281 186.377 41.0201C186.569 41.2121 186.665 41.4361 186.665 41.6921C186.665 41.9481 186.569 42.1721 186.377 42.3641C186.193 42.5481 185.969 42.6401 185.705 42.6401ZM184.937 49.3601V43.3601H186.485V49.3601H184.937Z" fill="#EA4D02"/>
<path d="M191.334 44.8481H189.978V47.3441C189.978 47.5521 190.03 47.7041 190.134 47.8001C190.238 47.8961 190.39 47.9521 190.59 47.9681C190.79 47.9761 191.038 47.9721 191.334 47.9561V49.3601C190.27 49.4801 189.518 49.3801 189.078 49.0601C188.646 48.7401 188.43 48.1681 188.43 47.3441V44.8481H187.386V43.3601H188.43V42.1481L189.978 41.6801V43.3601H191.334V44.8481Z" fill="#EA4D02"/>
<path d="M196.466 43.3601H198.122L195.938 49.3601C195.626 50.2241 195.21 50.8481 194.69 51.2321C194.178 51.6241 193.538 51.8001 192.77 51.7601V50.3201C193.186 50.3281 193.514 50.2401 193.754 50.0561C194.002 49.8721 194.198 49.5761 194.342 49.1681L191.882 43.3601H193.574L195.134 47.3921L196.466 43.3601Z" fill="#EA4D02"/>
<path d="M199.809 47.7041L198.909 51.0401H197.649L198.129 47.7041H199.809Z" fill="#EA4D02"/>
<path d="M206.257 49.3601L203.437 40.9601H205.237L207.289 47.4161L209.329 40.9601H211.141L208.309 49.3601H206.257Z" fill="#EA4D02"/>
<path d="M215.724 43.3601H217.272V49.3601H215.724V48.6521C215.26 49.2361 214.608 49.5281 213.768 49.5281C212.968 49.5281 212.28 49.2241 211.704 48.6161C211.136 48.0001 210.852 47.2481 210.852 46.3601C210.852 45.4721 211.136 44.7241 211.704 44.1161C212.28 43.5001 212.968 43.1921 213.768 43.1921C214.608 43.1921 215.26 43.4841 215.724 44.0681V43.3601ZM212.868 47.5841C213.18 47.8961 213.576 48.0521 214.056 48.0521C214.536 48.0521 214.932 47.8961 215.244 47.5841C215.564 47.2641 215.724 46.8561 215.724 46.3601C215.724 45.8641 215.564 45.4601 215.244 45.1481C214.932 44.8281 214.536 44.6681 214.056 44.6681C213.576 44.6681 213.18 44.8281 212.868 45.1481C212.556 45.4601 212.4 45.8641 212.4 46.3601C212.4 46.8561 212.556 47.2641 212.868 47.5841Z" fill="#EA4D02"/>
<path d="M218.675 49.3601V40.6001H220.223V49.3601H218.675Z" fill="#EA4D02"/>
<path d="M225.6 43.3601H227.148V49.3601H225.6V48.6881C225.224 49.2481 224.628 49.5281 223.812 49.5281C223.156 49.5281 222.612 49.3081 222.18 48.8681C221.756 48.4281 221.544 47.8201 221.544 47.0441V43.3601H223.092V46.8521C223.092 47.2521 223.2 47.5601 223.416 47.7761C223.632 47.9841 223.92 48.0881 224.28 48.0881C224.68 48.0881 225 47.9641 225.24 47.7161C225.48 47.4681 225.6 47.0961 225.6 46.6001V43.3601Z" fill="#EA4D02"/>
<path d="M229.874 46.9961C230.082 47.7481 230.646 48.1241 231.566 48.1241C232.158 48.1241 232.606 47.9241 232.91 47.5241L234.158 48.2441C233.566 49.1001 232.694 49.5281 231.542 49.5281C230.55 49.5281 229.754 49.2281 229.154 48.6281C228.554 48.0281 228.254 47.2721 228.254 46.3601C228.254 45.4561 228.55 44.7041 229.142 44.1041C229.734 43.4961 230.494 43.1921 231.422 43.1921C232.302 43.1921 233.026 43.4961 233.594 44.1041C234.17 44.7121 234.458 45.4641 234.458 46.3601C234.458 46.5601 234.438 46.7721 234.398 46.9961H229.874ZM229.85 45.7961H232.91C232.822 45.3881 232.638 45.0841 232.358 44.8841C232.086 44.6841 231.774 44.5841 231.422 44.5841C231.006 44.5841 230.662 44.6921 230.39 44.9081C230.118 45.1161 229.938 45.4121 229.85 45.7961Z" fill="#EA4D02"/>
<path d="M245.655 48.8801L244.335 49.6361L243.567 48.8081C242.919 49.2881 242.167 49.5281 241.311 49.5281C240.447 49.5281 239.739 49.3041 239.187 48.8561C238.643 48.4001 238.371 47.7921 238.371 47.0321C238.371 46.5361 238.491 46.0761 238.731 45.6521C238.971 45.2281 239.319 44.8841 239.775 44.6201C239.503 44.1881 239.367 43.7201 239.367 43.2161C239.367 42.5041 239.615 41.9241 240.111 41.4761C240.607 41.0201 241.235 40.7921 241.995 40.7921C242.595 40.7921 243.131 40.9481 243.603 41.2601C244.083 41.5641 244.439 42.0081 244.671 42.5921L243.255 43.4081C243.023 42.7361 242.611 42.4001 242.019 42.4001C241.731 42.4001 241.491 42.4841 241.299 42.6521C241.115 42.8201 241.023 43.0321 241.023 43.2881C241.023 43.5121 241.075 43.7161 241.179 43.9001C241.291 44.0841 241.467 44.3041 241.707 44.5601L243.507 46.5281C243.683 46.1521 243.819 45.6881 243.915 45.1361L245.307 45.9281C245.155 46.5761 244.911 47.1641 244.575 47.6921L245.655 48.8801ZM241.419 48.0041C241.835 48.0041 242.207 47.9041 242.535 47.7041L240.723 45.7361C240.707 45.7201 240.699 45.7081 240.699 45.7001C240.259 45.9721 240.039 46.3601 240.039 46.8641C240.039 47.2081 240.155 47.4841 240.387 47.6921C240.627 47.9001 240.971 48.0041 241.419 48.0041Z" fill="#EA4D02"/>
<path d="M255.241 40.9601V42.5441H252.973V49.3601H251.317V42.5441H249.061V40.9601H255.241Z" fill="#EA4D02"/>
<path d="M256.88 44.3921C257.024 44.0081 257.26 43.7201 257.588 43.5281C257.924 43.3361 258.296 43.2401 258.704 43.2401V44.9681C258.232 44.9121 257.808 45.0081 257.432 45.2561C257.064 45.5041 256.88 45.9161 256.88 46.4921V49.3601H255.332V43.3601H256.88V44.3921Z" fill="#EA4D02"/>
<path d="M263.569 43.3601H265.117V49.3601H263.569V48.6881C263.193 49.2481 262.597 49.5281 261.781 49.5281C261.125 49.5281 260.581 49.3081 260.149 48.8681C259.725 48.4281 259.513 47.8201 259.513 47.0441V43.3601H261.061V46.8521C261.061 47.2521 261.169 47.5601 261.385 47.7761C261.601 47.9841 261.889 48.0881 262.249 48.0881C262.649 48.0881 262.969 47.9641 263.209 47.7161C263.449 47.4681 263.569 47.0961 263.569 46.6001V43.3601Z" fill="#EA4D02"/>
<path d="M267.916 45.0641C267.916 45.2241 268.02 45.3561 268.228 45.4601C268.444 45.5561 268.704 45.6441 269.008 45.7241C269.312 45.7961 269.616 45.8921 269.92 46.0121C270.224 46.1241 270.48 46.3161 270.688 46.5881C270.904 46.8601 271.012 47.2001 271.012 47.6081C271.012 48.2241 270.78 48.7001 270.316 49.0361C269.86 49.3641 269.288 49.5281 268.6 49.5281C267.368 49.5281 266.528 49.0521 266.08 48.1001L267.424 47.3441C267.6 47.8641 267.992 48.1241 268.6 48.1241C269.152 48.1241 269.428 47.9521 269.428 47.6081C269.428 47.4481 269.32 47.3201 269.104 47.2241C268.896 47.1201 268.64 47.0281 268.336 46.9481C268.032 46.8681 267.728 46.7681 267.424 46.6481C267.12 46.5281 266.86 46.3401 266.644 46.0841C266.436 45.8201 266.332 45.4921 266.332 45.1001C266.332 44.5081 266.548 44.0441 266.98 43.7081C267.42 43.3641 267.964 43.1921 268.612 43.1921C269.1 43.1921 269.544 43.3041 269.944 43.5281C270.344 43.7441 270.66 44.0561 270.892 44.4641L269.572 45.1841C269.38 44.7761 269.06 44.5721 268.612 44.5721C268.412 44.5721 268.244 44.6161 268.108 44.7041C267.98 44.7921 267.916 44.9121 267.916 45.0641Z" fill="#EA4D02"/>
<path d="M275.264 44.8481H273.908V47.3441C273.908 47.5521 273.96 47.7041 274.064 47.8001C274.168 47.8961 274.32 47.9521 274.52 47.9681C274.72 47.9761 274.968 47.9721 275.264 47.9561V49.3601C274.2 49.4801 273.448 49.3801 273.008 49.0601C272.576 48.7401 272.36 48.1681 272.36 47.3441V44.8481H271.316V43.3601H272.36V42.1481L273.908 41.6801V43.3601H275.264V44.8481Z" fill="#EA4D02"/>
<path d="M98.8008 45.4001H148.001" stroke="#020749" stroke-width="0.6"/>
<path d="M52.0008 20.3511H38.5V28.1015H52.0008V20.3511Z" fill="#EA4D02"/>
<path d="M52.0008 29.4043H38.5V37.1547H52.0008V29.4043Z" fill="#EA4D02"/>
<path d="M52.0008 38.5093H38.5V46.2597H52.0008V38.5093Z" fill="#EA4D02"/>
<path d="M31.1481 16.9546C33.797 16.9546 35.9405 19.1044 35.9405 21.7476V42.9293V55.2071C35.9405 57.8564 33.7909 60.0001 31.1481 60.0001H25.8259V53.1852V27.0704H19.0909C13.7931 27.0704 9.5 22.7768 9.5 17.4783V16.9546H31.1481Z" fill="#020749"/>
<path d="M55.6034 0C56.4871 0 57.3604 0.0504867 58.2231 0.140241C72.1108 1.54826 83 14.0577 83 29.2318C83 45.3483 70.7115 58.4636 55.6034 58.4636H39.6641V49.1516H55.6034C65.8929 49.1516 74.2676 40.2155 74.2676 29.2318C74.2676 18.2481 65.8929 9.31761 55.6034 9.31761H8.28527C3.70865 9.32322 0 5.36842 0 0.488038V0H55.6034Z" fill="#020749"/>
</svg>
