<svg width="28" height="28" viewBox="0 0 28 28" fill="none" xmlns="http://www.w3.org/2000/svg">
<path d="M24.5 9.04175H3.5C3.02167 9.04175 2.625 8.64508 2.625 8.16675C2.625 7.68841 3.02167 7.29175 3.5 7.29175H24.5C24.9783 7.29175 25.375 7.68841 25.375 8.16675C25.375 8.64508 24.9783 9.04175 24.5 9.04175Z" fill="#020749"/>
<path d="M24.5 14.875H3.5C3.02167 14.875 2.625 14.4783 2.625 14C2.625 13.5217 3.02167 13.125 3.5 13.125H24.5C24.9783 13.125 25.375 13.5217 25.375 14C25.375 14.4783 24.9783 14.875 24.5 14.875Z" fill="#020749"/>
<path d="M24.5 20.7083H3.5C3.02167 20.7083 2.625 20.3116 2.625 19.8333C2.625 19.3549 3.02167 18.9583 3.5 18.9583H24.5C24.9783 18.9583 25.375 19.3549 25.375 19.8333C25.375 20.3116 24.9783 20.7083 24.5 20.7083Z" fill="#020749"/>
</svg>
