<svg width="62" height="62" viewBox="0 0 62 62" fill="none" xmlns="http://www.w3.org/2000/svg">
<rect width="62" height="62" rx="31" fill="white"/>
<path d="M44.3333 26.36V20.3066C44.3333 18.4266 43.48 17.6666 41.36 17.6666H35.9733C33.8533 17.6666 33 18.4266 33 20.3066V26.3466C33 28.24 33.8533 28.9866 35.9733 28.9866H41.36C43.48 29 44.3333 28.24 44.3333 26.36Z" stroke="#0E2CA0" stroke-width="2" stroke-linecap="round" stroke-linejoin="round"/>
<path d="M44.3333 41.36V35.9733C44.3333 33.8533 43.48 33 41.36 33H35.9733C33.8533 33 33 33.8533 33 35.9733V41.36C33 43.48 33.8533 44.3333 35.9733 44.3333H41.36C43.48 44.3333 44.3333 43.48 44.3333 41.36Z" stroke="#0E2CA0" stroke-width="2" stroke-linecap="round" stroke-linejoin="round"/>
<path d="M29 26.36V20.3066C29 18.4266 28.1467 17.6666 26.0267 17.6666H20.64C18.52 17.6666 17.6667 18.4266 17.6667 20.3066V26.3466C17.6667 28.24 18.52 28.9866 20.64 28.9866H26.0267C28.1467 29 29 28.24 29 26.36Z" stroke="#0E2CA0" stroke-width="2" stroke-linecap="round" stroke-linejoin="round"/>
<path d="M29 41.36V35.9733C29 33.8533 28.1467 33 26.0267 33H20.64C18.52 33 17.6667 33.8533 17.6667 35.9733V41.36C17.6667 43.48 18.52 44.3333 20.64 44.3333H26.0267C28.1467 44.3333 29 43.48 29 41.36Z" stroke="#0E2CA0" stroke-width="2" stroke-linecap="round" stroke-linejoin="round"/>
</svg>
