<svg width="360" height="360" viewBox="0 0 360 360" fill="none" xmlns="http://www.w3.org/2000/svg">
<path d="M68.3167 213.216H-17.6666C-16.2 127.6 0.66669 113.483 53.2834 82.3162C59.3334 78.6495 61.35 70.9495 57.6834 64.7162C54.2 58.6662 46.3167 56.6495 40.2667 60.3162C-21.7 96.9828 -43.3333 119.35 -43.3333 225.866V324.683C-43.3333 356.033 -17.85 381.333 13.3167 381.333H68.3167C100.583 381.333 124.967 356.95 124.967 324.683V269.683C124.967 237.6 100.583 213.216 68.3167 213.216Z" fill="white"/>
<path d="M266.684 213.216H180.701C182.168 127.6 199.034 113.483 251.651 82.3162C257.701 78.6495 259.718 70.9495 256.051 64.7162C252.384 58.6662 244.684 56.6495 238.451 60.3162C176.484 96.9828 154.851 119.35 154.851 226.05V324.866C154.851 356.216 180.334 381.516 211.501 381.516H266.501C298.768 381.516 323.151 357.133 323.151 324.866V269.866C323.334 237.6 298.951 213.216 266.684 213.216Z" fill="white"/>
</svg>
