<svg width="102" height="102" viewBox="0 0 102 102" fill="none" xmlns="http://www.w3.org/2000/svg">
<rect width="102" height="102" rx="51" fill="white"/>
<rect width="102" height="102" rx="51" fill="#0E2CA0" fill-opacity="0.2"/>
<path d="M51 56.625C47.895 56.625 45.375 54.105 45.375 51C45.375 47.895 47.895 45.375 51 45.375C54.105 45.375 56.625 47.895 56.625 51C56.625 54.105 54.105 56.625 51 56.625ZM51 47.625C49.14 47.625 47.625 49.14 47.625 51C47.625 52.86 49.14 54.375 51 54.375C52.86 54.375 54.375 52.86 54.375 51C54.375 49.14 52.86 47.625 51 47.625Z" fill="#0E2CA0"/>
<path d="M55.815 66.2852C55.5 66.2852 55.185 66.2402 54.87 66.1652C53.94 65.9102 53.16 65.3252 52.665 64.5002L52.485 64.2002C51.6 62.6702 50.385 62.6702 49.5 64.2002L49.335 64.4852C48.84 65.3252 48.06 65.9252 47.13 66.1652C46.185 66.4202 45.21 66.2852 44.385 65.7902L41.805 64.3052C40.89 63.7802 40.23 62.9252 39.945 61.8902C39.675 60.8552 39.81 59.7902 40.335 58.8752C40.77 58.1102 40.89 57.4202 40.635 56.9852C40.38 56.5502 39.735 56.2952 38.85 56.2952C36.66 56.2952 34.875 54.5102 34.875 52.3202V49.6802C34.875 47.4902 36.66 45.7052 38.85 45.7052C39.735 45.7052 40.38 45.4502 40.635 45.0152C40.89 44.5802 40.785 43.8902 40.335 43.1252C39.81 42.2102 39.675 41.1302 39.945 40.1102C40.215 39.0752 40.875 38.2202 41.805 37.6952L44.4 36.2102C46.095 35.2052 48.33 35.7902 49.35 37.5152L49.53 37.8152C50.415 39.3452 51.63 39.3452 52.515 37.8152L52.68 37.5302C53.7 35.7902 55.935 35.2052 57.645 36.2252L60.225 37.7102C61.14 38.2352 61.8 39.0902 62.085 40.1252C62.355 41.1602 62.22 42.2252 61.695 43.1402C61.26 43.9052 61.14 44.5952 61.395 45.0302C61.65 45.4652 62.295 45.7202 63.18 45.7202C65.37 45.7202 67.155 47.5052 67.155 49.6952V52.3352C67.155 54.5252 65.37 56.3102 63.18 56.3102C62.295 56.3102 61.65 56.5652 61.395 57.0002C61.14 57.4352 61.245 58.1252 61.695 58.8902C62.22 59.8052 62.37 60.8852 62.085 61.9052C61.815 62.9402 61.155 63.7952 60.225 64.3202L57.63 65.8052C57.06 66.1202 56.445 66.2852 55.815 66.2852ZM51 60.7352C52.335 60.7352 53.58 61.5752 54.435 63.0602L54.6 63.3452C54.78 63.6602 55.08 63.8852 55.44 63.9752C55.8 64.0652 56.16 64.0202 56.46 63.8402L59.055 62.3402C59.445 62.1152 59.745 61.7402 59.865 61.2902C59.985 60.8402 59.925 60.3752 59.7 59.9852C58.845 58.5152 58.74 57.0002 59.4 55.8452C60.06 54.6902 61.425 54.0302 63.135 54.0302C64.095 54.0302 64.86 53.2652 64.86 52.3052V49.6652C64.86 48.7202 64.095 47.9402 63.135 47.9402C61.425 47.9402 60.06 47.2802 59.4 46.1252C58.74 44.9702 58.845 43.4552 59.7 41.9852C59.925 41.5952 59.985 41.1302 59.865 40.6802C59.745 40.2302 59.46 39.8702 59.07 39.6302L56.475 38.1452C55.83 37.7552 54.975 37.9802 54.585 38.6402L54.42 38.9252C53.565 40.4102 52.32 41.2502 50.985 41.2502C49.65 41.2502 48.405 40.4102 47.55 38.9252L47.385 38.6252C47.01 37.9952 46.17 37.7702 45.525 38.1452L42.93 39.6452C42.54 39.8702 42.24 40.2452 42.12 40.6952C42 41.1452 42.06 41.6102 42.285 42.0002C43.14 43.4702 43.245 44.9852 42.585 46.1402C41.925 47.2952 40.56 47.9552 38.85 47.9552C37.89 47.9552 37.125 48.7202 37.125 49.6802V52.3202C37.125 53.2652 37.89 54.0452 38.85 54.0452C40.56 54.0452 41.925 54.7052 42.585 55.8602C43.245 57.0152 43.14 58.5302 42.285 60.0002C42.06 60.3902 42 60.8552 42.12 61.3052C42.24 61.7552 42.525 62.1152 42.915 62.3552L45.51 63.8402C45.825 64.0352 46.2 64.0802 46.545 63.9902C46.905 63.9002 47.205 63.6602 47.4 63.3452L47.565 63.0602C48.42 61.5902 49.665 60.7352 51 60.7352Z" fill="#0E2CA0"/>
</svg>
