<svg width="28" height="28" viewBox="0 0 28 28" fill="none" xmlns="http://www.w3.org/2000/svg">
<path d="M19.8333 24.7916H8.16665C3.90831 24.7916 1.45831 22.3416 1.45831 18.0833V9.91659C1.45831 5.65825 3.90831 3.20825 8.16665 3.20825H19.8333C24.0916 3.20825 26.5416 5.65825 26.5416 9.91659V18.0833C26.5416 22.3416 24.0916 24.7916 19.8333 24.7916ZM8.16665 4.95825C4.82998 4.95825 3.20831 6.57992 3.20831 9.91659V18.0833C3.20831 21.4199 4.82998 23.0416 8.16665 23.0416H19.8333C23.17 23.0416 24.7916 21.4199 24.7916 18.0833V9.91659C24.7916 6.57992 23.17 4.95825 19.8333 4.95825H8.16665Z" fill="#020749"/>
<path d="M13.9998 15.015C13.0198 15.015 12.0281 14.7116 11.2698 14.0933L7.61809 11.1766C7.24476 10.8733 7.17477 10.325 7.4781 9.95163C7.78143 9.5783 8.32977 9.5083 8.7031 9.81164L12.3548 12.7283C13.2414 13.44 14.7464 13.44 15.6331 12.7283L19.2848 9.81164C19.6581 9.5083 20.2181 9.56663 20.5098 9.95163C20.8131 10.325 20.7548 10.885 20.3698 11.1766L16.7181 14.0933C15.9714 14.7116 14.9798 15.015 13.9998 15.015Z" fill="#020749"/>
</svg>
