<svg width="102" height="102" viewBox="0 0 102 102" fill="none" xmlns="http://www.w3.org/2000/svg">
<rect width="102" height="102" rx="51" fill="white"/>
<rect width="102" height="102" rx="51" fill="#EA4D02" fill-opacity="0.2"/>
<path d="M59.49 67.0052C58.695 67.0052 57.675 66.7502 56.4 66.0002L51.915 63.3452C51.45 63.0752 50.55 63.0752 50.1 63.3452L45.6 66.0002C42.945 67.5752 41.385 66.9452 40.68 66.4352C39.99 65.9252 38.91 64.6202 39.615 61.6202L40.68 57.0152C40.8 56.5352 40.56 55.7102 40.2 55.3502L36.48 51.6302C34.62 49.7702 34.77 48.1802 35.025 47.4002C35.28 46.6202 36.09 45.2402 38.67 44.8052L43.455 44.0102C43.905 43.9352 44.55 43.4552 44.745 43.0502L47.4 37.7552C48.6 35.3402 50.175 34.9802 51 34.9802C51.825 34.9802 53.4 35.3402 54.6 37.7552L57.24 43.0352C57.45 43.4402 58.095 43.9202 58.545 43.9952L63.33 44.7902C65.925 45.2252 66.735 46.6052 66.975 47.3852C67.215 48.1652 67.365 49.7552 65.52 51.6152L61.8 55.3502C61.44 55.7102 61.215 56.5202 61.32 57.0152L62.385 61.6202C63.075 64.6202 62.01 65.9252 61.32 66.4352C60.945 66.7052 60.345 67.0052 59.49 67.0052ZM51 60.8852C51.735 60.8852 52.47 61.0652 53.055 61.4102L57.54 64.0652C58.845 64.8452 59.67 64.8452 59.985 64.6202C60.3 64.3952 60.525 63.6002 60.195 62.1302L59.13 57.5252C58.845 56.2802 59.31 54.6752 60.21 53.7602L63.93 50.0402C64.665 49.3052 64.995 48.5852 64.845 48.0902C64.68 47.5952 63.99 47.1902 62.97 47.0252L58.185 46.2302C57.03 46.0352 55.77 45.1052 55.245 44.0552L52.605 38.7752C52.125 37.8152 51.525 37.2452 51 37.2452C50.475 37.2452 49.875 37.8152 49.41 38.7752L46.755 44.0552C46.23 45.1052 44.97 46.0352 43.815 46.2302L39.045 47.0252C38.025 47.1902 37.335 47.5952 37.17 48.0902C37.005 48.5852 37.35 49.3202 38.085 50.0402L41.805 53.7602C42.705 54.6602 43.17 56.2802 42.885 57.5252L41.82 62.1302C41.475 63.6152 41.715 64.3952 42.03 64.6202C42.345 64.8452 43.155 64.8302 44.475 64.0652L48.96 61.4102C49.53 61.0652 50.265 60.8852 51 60.8852Z" fill="#EA4D02"/>
</svg>
